PathFileType	3	(X/Y/Z)	D:\Jess\Healthy\Labelled\HA07\20250404\SRRun01.trc
DataRate	CameraRate	NumFrames	NumMarkers	Units	OrigDataRate	OrigDataStartFrame	OrigNumFrames
250.0	250.0	4	33	mm	250.0	35937	2501
Frame#	Time	C7			T10			CLAV			LSHO			RSHO			LASIS			RASIS			LPSIS			RPSIS			LILCR			RILCR			LGTR			LTHI			LLTHI			LLEP			LPSH			LLSH			LDSH			LLMAL			LTOE			L5TH			LHEE			RGTR			RTHI			RLTHI			RLEP			RPSH			RLSH			RDSH			RLMAL			RTOE			R5TH			RHEE			
		X1	Y1	Z1	X2	Y2	Z2	X3	Y3	Z3	X4	Y4	Z4	X5	Y5	Z5	X6	Y6	Z6	X7	Y7	Z7	X8	Y8	Z8	X9	Y9	Z9	X10	Y10	Z10	X11	Y11	Z11	X12	Y12	Z12	X13	Y13	Z13	X14	Y14	Z14	X15	Y15	Z15	X16	Y16	Z16	X17	Y17	Z17	X18	Y18	Z18	X19	Y19	Z19	X20	Y20	Z20	X21	Y21	Z21	X22	Y22	Z22	X23	Y23	Z23	X24	Y24	Z24	X25	Y25	Z25	X26	Y26	Z26	X27	Y27	Z27	X28	Y28	Z28	X29	Y29	Z29	X30	Y30	Z30	X31	Y31	Z31	X32	Y32	Z32	X33	Y33	Z33	

938	143.744	1068.054036515356	1327.077315610007	-280.5521991343878	997.3137749403624	1123.796015170036	-291.2748363760878	1198.910828214275	1243.984762495607	-287.3053061614901	1109.815998761697	1314.863439285015	-439.4481452747723	1125.201244722352	1308.171281443868	-134.1165891134436	1169.06273327207	879.7923849037168	-410.8407886730716	1151.781213280893	902.4244638830448	-180.0148054326087	993.6471102139994	937.7904953772933	-323.0754954045202	991.414881164188	940.3768292267513	-281.4001606762788	1110.324097999821	905.6963087135757	-461.8452295967592	1084.30661569793	933.9906737724168	-147.7395984701589	1101.618406945032	795.0552744845826	-469.2444194560852	1248.284246252288	697.2653013288331	-390.8485366102377	1201.400576421215	583.6339986550026	-456.6996794806439	1249.403024790982	444.7543290097233	-429.0327964048096	1230.047584521127	362.9562154436814	-376.7620799492067	1094.78779372694	392.182871802054	-436.0039783181043	1032.484931686186	289.4599453116487	-377.1439779403367	922.804972172416	286.3376134972685	-411.1515213109495	939.2665472217958	156.871561105009	-408.2275905224653	903.2778642122992	183.7963628170906	-443.9281360887279	866.7538510743592	343.0919507397297	-362.9635262995996	1089.670083063575	831.3928315873806	-128.5568506152911	1201.824831912356	695.8018675944645	-202.04915460283	1127.296502228604	587.7301907891862	-150.0784743410918	1133.915589684975	417.1668983881798	-185.7908902817329	1149.395308794853	335.5858568952261	-250.1357893522182	1038.395898012364	271.9640194145254	-187.9412499583261	1026.442773094951	165.6727483043141	-268.9591876580193	940.3198715709682	109.8552039941256	-238.3990362671247	1053.696792099793	60.33253497761851	-258.3335537599949	1017.533874019709	41.80061433467984	-212.0014785687404	856.1691594846726	93.80770816299172	-279.8561609026701	
939	143.748	1067.619305945336	1328.726709356452	-279.9051528184605	997.3984720261908	1125.276739924577	-289.7187183415274	1198.64904384901	1246.014823131647	-288.4043143294664	1107.324300996379	1316.815921582405	-439.1899335096321	1126.749746587903	1309.831965841152	-134.2430453008264	1168.129481112974	881.7447861322305	-411.3011952254593	1152.686979163542	903.3121041002444	-180.2140457183901	993.5172641688105	939.4256504991148	-321.9705522169896	991.6370411664778	941.9736264872612	-280.2735180840792	1108.933846936005	907.629609910614	-461.7458316760962	1085.611597000025	935.1735682437562	-147.5016535781047	1100.435103421594	797.0989970698564	-469.3019816067679	1249.065587072462	701.3695514215182	-391.5325107711584	1204.035627633775	587.2747654187077	-456.962057232423	1254.430420516902	449.1482711396439	-429.016983626969	1237.224393114605	366.5453788710631	-377.1276070587005	1100.959563789938	392.6322161373287	-435.7619308922521	1041.612005095497	287.5240487182407	-377.4489036551191	932.0794878453825	281.2030725509661	-411.2888237900827	952.8176927817663	152.389648989906	-408.5345483136476	915.9783198832587	178.1257806677814	-444.2223716115436	874.1018603272223	336.0204283860404	-363.1143379330614	1090.165641738552	832.4635547047689	-128.5392035430994	1199.444031706061	695.113689430864	-202.6775872164173	1122.823050622629	588.2928395303104	-150.5930541549955	1126.117766598052	417.4626364259846	-186.2684456469645	1140.723956579359	335.6523212151193	-250.5466223591718	1029.435046549281	272.9361424277114	-188.1586839279777	1016.562591773159	166.5683792721233	-268.9017593588873	930.0842633515194	111.0938801511193	-238.1283713386256	1042.829778286354	60.1924788202378	-258.2873296315089	1006.511492318694	41.95655959174029	-212.0436089279264	845.7666974049815	95.97344972368295	-279.4128835749286	
940	143.752	1067.163722525359	1330.553064219141	-279.2827146191137	997.5673117543852	1126.904597042321	-288.1681390091182	1198.358524373385	1248.285097098039	-289.5033192284801	1104.840024935514	1318.965720459128	-438.9198793487488	1128.253645030628	1311.692282926487	-134.4104800808988	1167.299411799363	883.9058108781974	-411.6883652948157	1153.674649007269	904.3249663157707	-180.3671057812128	993.4836828508113	941.2133439649772	-320.8566131452036	991.9600501890404	943.7049981754043	-279.1439254790806	1107.693004144144	909.8028895285631	-461.6089282876335	1086.988930829064	936.4644577232827	-147.2652105284261	1099.420807349436	799.3947808838353	-469.385949169244	1249.755748008285	705.6730022508196	-392.1387473291911	1206.507017343668	591.1104040183834	-457.1761802800214	1259.104045047657	453.7181989568589	-428.9863252530066	1244.17471244676	370.2868752677565	-377.5183312385288	1106.90492473533	392.9780440097808	-435.5054413467775	1050.772405035543	285.5161024680087	-377.7206011064724	941.4619734581777	275.8371950607146	-411.3676861416283	966.6072879769406	147.8337053017589	-408.7737270017445	928.8956390501312	172.296794776043	-444.4310197764281	881.5863292279714	328.6100806175696	-363.1905774443271	1090.701113261092	833.6412396923172	-128.536875149177	1197.102128196444	694.6086780733638	-203.312005035731	1118.376663913725	589.0595261378679	-151.1485854079552	1118.306430447195	418.0682583970532	-186.788155871173	1132.012485140967	336.0266865074004	-251.0168937626627	1020.510294449296	274.1797312434774	-188.3733245014519	1006.76075732676	167.6919584679552	-268.8415487292244	919.9718459058374	112.4791818481999	-237.8374966443646	1032.000453167835	60.08213399775132	-258.2282116039983	995.5174400246556	42.15379177548062	-212.0853154445271	835.4869382192369	98.37959711352687	-278.9416330929062	
941	143.756	1066.697761818622	1332.545175948372	-278.6861598369171	997.8183105962011	1128.674506369186	-286.6278173112175	1198.044556397075	1250.773787696555	-290.5967115725286	1102.380718833613	1321.295370705551	-438.6362713878479	1129.715348416773	1313.739853556918	-134.6172382422224	1166.574957006017	886.2726784133481	-412.0036132612723	1154.74571708337	905.4619041268023	-180.4806234619702	993.5467267130999	943.1488369536837	-319.7394493645567	992.3858222475436	945.5672332630207	-278.0177940209994	1106.604884073214	912.2153364175782	-461.4370483216243	1088.441326746704	937.8630477719498	-147.0360192206029	1098.578616687905	801.9384676263849	-469.4983821793527	1250.357924067881	710.1578000429705	-392.6549024790527	1208.817207547999	595.1137728201562	-457.3440377413266	1263.417337329386	458.4189709386352	-428.9363395262958	1250.884627169661	374.1520535799621	-377.9220999913362	1112.637581845519	393.1864962887064	-435.2397515769919	1059.970236166494	283.4373212951884	-377.9534337122099	950.968911026062	270.2579108931536	-411.3859542483339	980.6291463406859	143.2300628604922	-408.9519620949534	942.0340261292205	166.3407178181675	-444.5603058503467	889.2369193712797	320.8820522476556	-363.1843736611004	1091.278510458908	834.9267484659993	-128.5508971641387	1194.809551686799	694.2941708887164	-203.95712862575	1113.984050945455	590.0364865187501	-151.7379133905943	1110.497641833261	418.990011160276	-187.3406991247348	1123.281492219792	336.7123827454568	-251.5311583045001	1011.629906796021	275.7017071897064	-188.576256253161	997.0568652204095	169.0474713346577	-268.7718057323098	909.9997483494193	114.0151863638783	-237.5271290942464	1021.214279469946	60.00147009489877	-258.1541441077606	984.557168893861	42.3922813284001	-212.1245986759163	825.3499304519443	101.0347405379537	-278.4510401647652	
